<svg width="79" height="96" xmlns="http://www.w3.org/2000/svg" xmlns:xlink="http://www.w3.org/1999/xlink" xml:space="preserve" overflow="hidden"><defs><clipPath id="clip0"><rect x="1994" y="787" width="79" height="96"/></clipPath></defs><g clip-path="url(#clip0)" transform="translate(-1994 -787)"><path d="M1994 800.167C1994 792.895 1999.9 787 2007.17 787L2059.83 787C2067.11 787 2073 792.895 2073 800.167L2073 869.833C2073 877.105 2067.11 883 2059.83 883L2007.17 883C1999.9 883 1994 877.105 1994 869.833Z" fill="#00B0F0" fill-rule="evenodd"/><g><g><g><path d="M2016.22 809.635 2016.22 816.219 2009.64 816.219 2009.64 809.635 2016.22 809.635ZM2021.16 804.698 2004.7 804.698 2004.7 821.156 2021.16 821.156 2021.16 804.698Z" fill="#FFFFFF"/><path d="M2016.22 850.781 2016.22 857.365 2009.64 857.365 2009.64 850.781 2016.22 850.781ZM2021.16 845.844 2004.7 845.844 2004.7 862.302 2021.16 862.302 2021.16 845.844Z" fill="#FFFFFF"/><path d="M2057.36 809.635 2057.36 816.219 2050.78 816.219 2050.78 809.635 2057.36 809.635ZM2062.3 804.698 2045.84 804.698 2045.84 821.156 2062.3 821.156 2062.3 804.698Z" fill="#FFFFFF"/><path d="M2031.03 831.031 2014.57 831.031 2014.57 826.094 2026.09 826.094 2026.09 804.698 2040.91 804.698 2040.91 809.635 2031.03 809.635Z" fill="#FFFFFF"/><path d="M2035.97 814.573 2040.91 814.573 2040.91 821.156 2035.97 821.156Z" fill="#FFFFFF"/><path d="M2035.15 850.781 2026.09 850.781 2026.09 835.969 2035.97 835.969 2035.97 826.094 2050.78 826.094 2050.78 835.969 2062.3 835.969 2062.3 840.906 2045.84 840.906 2045.84 831.031 2040.91 831.031 2040.91 840.906 2031.03 840.906 2031.03 845.844 2035.15 845.844Z" fill="#FFFFFF"/><path d="M2021.16 840.906 2004.7 840.906 2004.7 826.094 2009.64 826.094 2009.64 835.969 2021.16 835.969Z" fill="#FFFFFF"/><path d="M2045.84 862.302 2026.09 862.302 2026.09 857.365 2040.91 857.365 2040.91 845.844 2045.84 845.844Z" fill="#FFFFFF"/><path d="M2055.72 826.094 2062.3 826.094 2062.3 831.031 2055.72 831.031Z" fill="#FFFFFF"/><path d="M2062.3 862.302 2050.78 862.302 2050.78 845.844 2062.3 845.844 2062.3 850.781 2055.72 850.781 2055.72 857.365 2062.3 857.365Z" fill="#FFFFFF"/></g></g></g></g></svg>