<svg width="774" height="636" xmlns="http://www.w3.org/2000/svg" xmlns:xlink="http://www.w3.org/1999/xlink" xml:space="preserve" overflow="hidden"><defs><clipPath id="clip0"><rect x="828" y="1409" width="774" height="636"/></clipPath><linearGradient x1="828" y1="1727" x2="1602" y2="1727" gradientUnits="userSpaceOnUse" spreadMethod="reflect" id="fill1"><stop offset="0" stop-color="#D60C71"/><stop offset="0.52" stop-color="#B20A5E"/><stop offset="0.67" stop-color="#7030A0"/><stop offset="1" stop-color="#7030A0"/></linearGradient></defs><g clip-path="url(#clip0)" transform="translate(-828 -1409)"><path d="M934.002 2045C875.459 2045 828 1997.54 828 1939L828 1515C828 1456.46 875.459 1409 934.002 1409L1496 1409C1554.54 1409 1602 1456.46 1602 1515L1602 1939C1602 1997.54 1554.54 2045 1496 2045Z" fill="url(#fill1)" fill-rule="evenodd"/><path d="M1409.26 1550.72C1419.04 1552.3 1425.05 1565.5 1422.67 1580.19 1420.29 1594.88 1410.44 1605.51 1400.65 1603.93 1390.87 1602.35 1384.87 1589.15 1387.24 1574.46 1389.62 1559.77 1399.48 1549.14 1409.26 1550.72Z" fill="#FFFFFF" fill-rule="evenodd"/><path d="M1443.49 1596.99C1452.64 1600.79 1456.2 1613.16 1451.44 1624.6 1446.68 1636.05 1435.4 1642.24 1426.25 1638.44 1417.1 1634.63 1413.54 1622.27 1418.3 1610.82 1423.06 1599.38 1434.34 1593.18 1443.49 1596.99Z" fill="#FFFFFF" fill-rule="evenodd"/><path d="M1375.2 1574.45C1377.57 1589.14 1371.57 1602.33 1361.79 1603.91 1352 1605.5 1342.15 1594.87 1339.77 1580.18 1337.39 1565.48 1343.4 1552.29 1353.18 1550.71 1362.96 1549.12 1372.82 1559.75 1375.2 1574.45Z" fill="#FFFFFF" fill-rule="evenodd"/><path d="M1344.13 1610.82C1348.89 1622.27 1345.33 1634.63 1336.18 1638.44 1327.03 1642.24 1315.76 1636.05 1311 1624.6 1306.24 1613.15 1309.8 1600.79 1318.95 1596.98 1328.1 1593.18 1339.37 1599.37 1344.13 1610.82Z" fill="#FFFFFF" fill-rule="evenodd"/><path d="M1382.58 1694.65C1387.64 1694.61 1392.6 1696.1 1396.82 1698.95 1398.1 1699.76 1399.45 1700.47 1400.84 1701.06 1411.89 1706.07 1424.85 1701.04 1429.78 1689.81 1430.3 1688.63 1430.72 1687.4 1431.03 1686.14 1432.82 1679.33 1432.12 1672.1 1429.05 1665.78 1427.12 1661.73 1424.3 1658.18 1420.81 1655.39 1418.3 1653.48 1416.01 1651.27 1413.99 1648.82L1411.61 1645.8C1407.95 1641.31 1405.34 1636.03 1403.98 1630.36 1402.98 1625.76 1400.85 1621.5 1397.77 1617.97 1390.02 1608.55 1376.23 1607.3 1366.96 1615.18 1365.96 1616.02 1365.05 1616.96 1364.21 1617.97 1361.16 1621.51 1359.03 1625.77 1358.01 1630.36 1356.65 1636.03 1354.04 1641.31 1350.38 1645.8L1348.03 1648.82C1346.01 1651.27 1343.72 1653.47 1341.21 1655.39 1337.73 1658.17 1334.91 1661.72 1333 1665.78 1329.9 1672.09 1329.17 1679.33 1330.96 1686.14 1332.62 1692.48 1336.88 1697.79 1342.64 1700.75 1348.48 1703.55 1355.22 1703.66 1361.15 1701.06 1362.45 1700.53 1363.71 1699.88 1364.89 1699.12 1368.9 1696.52 1373.5 1695.03 1378.25 1694.79Z" fill="#FFFFFF" fill-rule="evenodd"/><path d="M1249.5 1538.5C1249.5 1514.2 1269.2 1494.5 1293.5 1494.5L1469.5 1494.5C1493.8 1494.5 1513.5 1514.2 1513.5 1538.5L1513.5 1714.5C1513.5 1738.8 1493.8 1758.5 1469.5 1758.5L1293.5 1758.5C1269.2 1758.5 1249.5 1738.8 1249.5 1714.5Z" stroke="#FFFFFF" stroke-width="22.9167" stroke-miterlimit="8" fill="none" fill-rule="evenodd"/><path d="M891 1620 1221 1620 1221 1636 891 1636Z" fill="#FFFFFF" fill-rule="evenodd"/><path d="M891 1554 1048 1554 1048 1570 891 1570Z" fill="#FFFFFF" fill-rule="evenodd"/><path d="M891 1686 1221 1686 1221 1702 891 1702Z" fill="#FFFFFF" fill-rule="evenodd"/><path d="M891 1751 1221 1751 1221 1768 891 1768Z" fill="#FFFFFF" fill-rule="evenodd"/><path d="M891 1817 1221 1817 1221 1834 891 1834Z" fill="#FFFFFF" fill-rule="evenodd"/><path d="M891 1883 1221 1883 1221 1900 891 1900Z" fill="#FFFFFF" fill-rule="evenodd"/></g></svg>